<?xml version="1.0" encoding="utf-8"?>
<?xml-stylesheet type="text/xsl" href="rss1.xsl"?>
<rss version="2.0" xmlns:atom="http://www.w3.org/2005/Atom" xmlns:content="http://purl.org/rss/1.0/modules/content/" xmlns:dc="http://purl.org/dc/elements/1.1/" xmlns:media="http://search.yahoo.com/mrss/">
<channel>
 <title>Getty</title>
 <link>http://www.gettyimg.com/</link>
 <atom:link href="http://www.gettyimg.com/" rel="self" type="application/rss+xml" />

 
                <item>
                <title><![CDATA[【Albums (lossless)】FLAC - The Avalanches - Since I Left You (2000) | 2001 CD Rip w/ Original Samples | 16/44.1 FLAC]]></title>
                <link><![CDATA[https://sharemania.us/threads/the-avalanches-since-i-left-you-2000-2001-cd-rip-w-original-samples-16-44-1-flac.246245/]]></link>
                <description><![CDATA[<article>
<blockquote class="messageText SelectQuoteContainer ugc baseHtml">
<div style="text-align: center"><span style="font-family: 'Trebuchet MS'"><b><span style="font-size: 22px">The Avalanches - Since I Left You</span></b><span style="font-size: 22px"> (2001)</span><br>
<span style="font-size: 18px"><a href="https://www.discogs.com/release/168021-The-Avalanches-Since-I-Left-You" target="_blank" class="externalLink" rel="nofollow">2001 Spanish CD - Everlasting Records/XL/Modular<b> (EVERCD 172-16)</b></a><br>
<br>
<b><img src="https://a1.mzstatic.com/r40/Music115/v4/a2/13/79/a2137927-8f49-fcb7-9cbf-09801fea7d26/06UMGIM72874.rgb.jpg" class="bbCodeImage LbImage" alt="[​IMG]" data-url="https://a1.mzstatic.com/r40/Music115/v4/a2/13/79/a2137927-8f49-fcb7-9cbf-09801fea7d26/06UMGIM72874.rgb.jpg" style=""> </b><br>
<b><span style="text-decoration: underline">Tracklist:</span></b><br>
<span style="font-size: 15px">Since I Left You</span></span><span style="font-size: 12px"> (4:22)</span><br>
<span style="font-size: 18px"><span style="font-size: 15px">Stay Another Season<span style="font-family: 'Trebuchet MS'"><span style="font-size: 12px"> (2:15)</span></span></span></span><br>
<span style="font-size: 18px"><span style="font-size: 15px">Radio<span style="font-family: 'Trebuchet MS'"><span style="font-size: 12px"> (4:52)</span></span></span></span><br>
<span style="font-size: 18px"><span style="font-size: 15px">Two Hearts In 3/4 Time<span style="font-family: 'Trebuchet MS'"><span style="font-size: 12px"> (3:22)</span></span></span></span><br>
<span style="font-size: 18px"><span style="font-size: 15px">Avalanche Rock<span style="font-family: 'Trebuchet MS'"><span style="font-size: 12px"> (0:23)</span></span></span></span><br>
<span style="font-size: 18px"><span style="font-size: 15px">Flight Tonight<span style="font-family: 'Trebuchet MS'"><span style="font-size: 12px"> (3:52)</span></span></span></span><br>
<span style="font-size: 18px"><span style="font-size: 15px">Close To You<span style="font-family: 'Trebuchet MS'"><span style="font-size: 12px"> (3:55)</span></span></span></span><br>
<span style="font-size: 18px"><span style="font-size: 15px">Diners Only<span style="font-family: 'Trebuchet MS'"><span style="font-size: 12px"> (1:43)</span></span></span></span><br>
<span style="font-size: 18px"><span style="font-size: 15px">A Different Feeling<span style="font-family: 'Trebuchet MS'"><span style="font-size: 12px"> (4:23)</span></span></span></span><br>
<span style="font-size: 18px"><span style="font-size: 15px">Electricity<span style="font-family: 'Trebuchet MS'"><span style="font-size: 12px"> (3:29)</span></span></span></span><br>
<span style="font-size: 18px"><span style="font-size: 15px">Tonight<span style="font-family: 'Trebuchet MS'"><span style="font-size: 12px"> (2:20)</span></span></span></span><br>
<span style="font-size: 18px"><span style="font-size: 15px">Pablo's Cruise<span style="font-family: 'Trebuchet MS'"><span style="font-size: 12px"> (0:53)</span></span> </span></span><br>
<span style="font-size: 18px"><span style="font-size: 15px">Frontier Psychiatrist<span style="font-family: 'Trebuchet MS'"><span style="font-size: 12px"> (4:46)</span></span></span></span><br>
<span style="font-size: 18px"><span style="font-size: 15px">Etoh<span style="font-family: 'Trebuchet MS'"><span style="font-size: 12px"> (5:03)</span></span></span></span><br>
<span style="font-size: 18px"><span style="font-size: 15px">Summer Crane<span style="font-family: 'Trebuchet MS'"><span style="font-size: 12px"> (4:39)</span></span></span></span><br>
<span style="font-size: 18px"><span style="font-size: 15px">Little Journey<span style="font-family: 'Trebuchet MS'"><span style="font-size: 12px"> (1:53)</span></span></span></span><br>
<span style="font-size: 18px"><span style="font-size: 15px">Live At Dominoes<span style="font-family: 'Trebuchet MS'"><span style="font-size: 12px"> (5:51)</span></span></span></span><br>
<span style="font-size: 18px"><span style="font-size: 15px">Extra Kings <span style="font-family: 'Trebuchet MS'"><span style="font-size: 12px"> (3:43)</span></span></span></span><br>
<span style="font-size: 18px"><br>
This is the most complete commercially available edition of the album. Contains all original samples from the promotional "The Album" Zomba cd. Identical to sought after Scandinavian pressing.<br>
<br>
<b>Ripped with EAC, 100% Log</b><br>
<div class="ToggleTriggerAnchor bbCodeSpoilerContainer">
<button type="button" class="button bbCodeSpoilerButton ToggleTrigger Tooltip JsOnly" data-target="> .SpoilerTarget"><span>Spoiler: <span class="SpoilerTitle">EAC Log</span></span></button>
<div class="SpoilerTarget bbCodeSpoilerText">Exact Audio Copy V1.6 from 23. October 2020<br>
<br>
EAC extraction logfile from 7. May 2024, 16:20<br>
<br>
The Avalanches / Since I Left You<br>
<br>
Used drive : HL-DT-STBD-RE BP50NB40 Adapter: 1 ID: 0<br>
<br>
Read mode : Secure<br>
Utilize accurate stream : Yes<br>
Defeat audio cache : Yes<br>
Make use of C2 pointers : No<br>
<br>
Read offset correction : 6<br>
Overread into Lead-In and Lead-Out : No<br>
Fill up missing offset samples with silence : Yes<br>
Delete leading and trailing silent blocks : No<br>
Null samples used in CRC calculations : Yes<br>
Used interface : Native Win32 interface for Win NT &amp; 2000<br>
Gap handling : Appended to previous track<br>
<br>
Used output format : User Defined Encoder<br>
Selected bitrate : 1024 kBit/s<br>
Quality : High<br>
Add ID3 tag : No<br>
Command line compressor : C:\Program Files (x86)\Exact Audio Copy\Flac\flac.exe<br>
Additional command line options : -8 -V -T "ARTIST=%artist%" -T "TITLE=%title%" -T "ALBUM=%albumtitle%" -T "DATE=%year%" -T "TRACKNUMBER=%tracknr%" -T "GENRE=%genre%" -T "PERFORMER=%albuminterpret%" -T "COMPOSER=%composer%" %haslyrics%--tag-from-file=LYRICS="%lyricsfile%"%haslyrics% -T "ALBUMARTIST=%albumartist%" -T "DISCNUMBER=%cdnumber%" -T "TOTALDISCS=%totalcds%" -T "TOTALTRACKS=%numtracks%" -T "COMMENT=%comment%" %source% -o %dest%<br>
<br>
<br>
TOC of the extracted CD<br>
<br>
Track | Start | Length | Start sector | End sector <br>
---------------------------------------------------------<br>
1 | 0:00.00 | 4:22.70 | 0 | 19719 <br>
2 | 4:22.70 | 2:15.62 | 19720 | 29906 <br>
3 | 6:38.57 | 4:52.15 | 29907 | 51821 <br>
4 | 11:30.72 | 3:22.60 | 51822 | 67031 <br>
5 | 14:53.57 | 0:23.20 | 67032 | 68776 <br>
6 | 15:17.02 | 3:52.43 | 68777 | 86219 <br>
7 | 19:09.45 | 3:55.72 | 86220 | 103916 <br>
8 | 23:05.42 | 1:43.00 | 103917 | 111641 <br>
9 | 24:48.42 | 4:23.03 | 111642 | 131369 <br>
10 | 29:11.45 | 3:29.37 | 131370 | 147081 <br>
11 | 32:41.07 | 2:20.00 | 147082 | 157581 <br>
12 | 35:01.07 | 0:53.45 | 157582 | 161601 <br>
13 | 35:54.52 | 4:46.70 | 161602 | 183121 <br>
14 | 40:41.47 | 5:03.08 | 183122 | 205854 <br>
15 | 45:44.55 | 4:39.35 | 205855 | 226814 <br>
16 | 50:24.15 | 1:53.67 | 226815 | 235356 <br>
17 | 52:18.07 | 5:51.73 | 235357 | 261754 <br>
18 | 58:10.05 | 3:43.52 | 261755 | 278531 <br>
<br>
<br>
Track 1<br>
<br>
Filename E:\Music\spidddd colon3\2000 - Since I Left You (2001 Spanish CD - EVERCD 172-16) [16-44.1 CD FLAC]\01 Since I Left You.wav<br>
<br>
Pre-gap length 0:00:02.00<br>
<br>
Peak level 100.0 %<br>
Extraction speed 1.0 X<br>
Track quality 99.9 %<br>
Test CRC 2E33F6C3<br>
Copy CRC 2E33F6C3<br>
Accurately ripped (confidence 1) [939EBFE7] (AR v2)<br>
Copy OK<br>
<br>
Track 2<br>
<br>
Filename E:\Music\spidddd colon3\2000 - Since I Left You (2001 Spanish CD - EVERCD 172-16) [16-44.1 CD FLAC]\02 Stay Another Season.wav<br>
<br>
Peak level 100.0 %<br>
Extraction speed 1.1 X<br>
Track quality 100.0 %<br>
Test CRC 6DB0C510<br>
Copy CRC 6DB0C510<br>
Accurately ripped (confidence 1) [FBE8E378] (AR v2)<br>
Copy OK<br>
<br>
Track 3<br>
<br>
Filename E:\Music\spidddd colon3\2000 - Since I Left You (2001 Spanish CD - EVERCD 172-16) [16-44.1 CD FLAC]\03 Radio.wav<br>
<br>
Peak level 100.0 %<br>
Extraction speed 1.4 X<br>
Track quality 100.0 %<br>
Test CRC E157ABE3<br>
Copy CRC E157ABE3<br>
Accurately ripped (confidence 1) [52EE07BA] (AR v2)<br>
Copy OK<br>
<br>
Track 4<br>
<br>
Filename E:\Music\spidddd colon3\2000 - Since I Left You (2001 Spanish CD - EVERCD 172-16) [16-44.1 CD FLAC]\04 Two Hearts In 3／4 Time.wav<br>
<br>
Peak level 100.0 %<br>
Extraction speed 1.4 X<br>
Track quality 100.0 %<br>
Test CRC A0491FB2<br>
Copy CRC A0491FB2<br>
Accurately ripped (confidence 1) [5A46A50C] (AR v2)<br>
Copy OK<br>
<br>
Track 5<br>
<br>
Filename E:\Music\spidddd colon3\2000 - Since I Left You (2001 Spanish CD - EVERCD 172-16) [16-44.1 CD FLAC]\05 Avalanche Rock.wav<br>
<br>
Peak level 100.0 %<br>
Extraction speed 0.6 X<br>
Track quality 100.0 %<br>
Test CRC 7F298D4C<br>
Copy CRC 7F298D4C<br>
Accurately ripped (confidence 1) [66B64166] (AR v2)<br>
Copy OK<br>
<br>
Track 6<br>
<br>
Filename E:\Music\spidddd colon3\2000 - Since I Left You (2001 Spanish CD - EVERCD 172-16) [16-44.1 CD FLAC]\06 Flight Tonight.wav<br>
<br>
Peak level 100.0 %<br>
Extraction speed 1.5 X<br>
Track quality 100.0 %<br>
Test CRC C3414BCE<br>
Copy CRC C3414BCE<br>
Accurately ripped (confidence 1) [15164A53] (AR v2)<br>
Copy OK<br>
<br>
Track 7<br>
<br>
Filename E:\Music\spidddd colon3\2000 - Since I Left You (2001 Spanish CD - EVERCD 172-16) [16-44.1 CD FLAC]\07 Close To You.wav<br>
<br>
Peak level 100.0 %<br>
Extraction speed 1.6 X<br>
Track quality 100.0 %<br>
Test CRC 45AC8BFF<br>
Copy CRC 45AC8BFF<br>
Accurately ripped (confidence 1) [92D9BC82] (AR v2)<br>
Copy OK<br>
<br>
Track 8<br>
<br>
Filename E:\Music\spidddd colon3\2000 - Since I Left You (2001 Spanish CD - EVERCD 172-16) [16-44.1 CD FLAC]\08 Diners Only.wav<br>
<br>
Peak level 100.0 %<br>
Extraction speed 1.4 X<br>
Track quality 100.0 %<br>
Test CRC 3F1F2432<br>
Copy CRC 3F1F2432<br>
Accurately ripped (confidence 1) [27EA8F8D] (AR v2)<br>
Copy OK<br>
<br>
Track 9<br>
<br>
Filename E:\Music\spidddd colon3\2000 - Since I Left You (2001 Spanish CD - EVERCD 172-16) [16-44.1 CD FLAC]\09 A Different Feeling.wav<br>
<br>
Peak level 100.0 %<br>
Extraction speed 1.8 X<br>
Track quality 100.0 %<br>
Test CRC DF294AD1<br>
Copy CRC DF294AD1<br>
Accurately ripped (confidence 1) [7A7BF988] (AR v2)<br>
Copy OK<br>
<br>
Track 10<br>
<br>
Filename E:\Music\spidddd colon3\2000 - Since I Left You (2001 Spanish CD - EVERCD 172-16) [16-44.1 CD FLAC]\10 Electricity.wav<br>
<br>
Peak level 100.0 %<br>
Extraction speed 1.3 X<br>
Track quality 99.9 %<br>
Test CRC AA7B43F4<br>
Copy CRC AA7B43F4<br>
Accurately ripped (confidence 1) [E8C0031A] (AR v2)<br>
Copy OK<br>
<br>
Track 11<br>
<br>
Filename E:\Music\spidddd colon3\2000 - Since I Left You (2001 Spanish CD - EVERCD 172-16) [16-44.1 CD FLAC]\11 Tonight.wav<br>
<br>
Peak level 100.0 %<br>
Extraction speed 1.7 X<br>
Track quality 100.0 %<br>
Test CRC 4CE595E9<br>
Copy CRC 4CE595E9<br>
Accurately ripped (confidence 1) [0AE974EC] (AR v2)<br>
Copy OK<br>
<br>
Track 12<br>
<br>
Filename E:\Music\spidddd colon3\2000 - Since I Left You (2001 Spanish CD - EVERCD 172-16) [16-44.1 CD FLAC]\12 Pablo's Cruise.wav<br>
<br>
Peak level 100.0 %<br>
Extraction speed 1.3 X<br>
Track quality 100.0 %<br>
Test CRC B3E0AA22<br>
Copy CRC B3E0AA22<br>
Accurately ripped (confidence 1) [002A614D] (AR v2)<br>
Copy OK<br>
<br>
Track 13<br>
<br>
Filename E:\Music\spidddd colon3\2000 - Since I Left You (2001 Spanish CD - EVERCD 172-16) [16-44.1 CD FLAC]\13 Frontier Psychiatrist.wav<br>
<br>
Peak level 100.0 %<br>
Extraction speed 2.0 X<br>
Track quality 100.0 %<br>
Test CRC 9CE8F8B5<br>
Copy CRC 9CE8F8B5<br>
Accurately ripped (confidence 1) [D0B82075] (AR v2)<br>
Copy OK<br>
<br>
Track 14<br>
<br>
Filename E:\Music\spidddd colon3\2000 - Since I Left You (2001 Spanish CD - EVERCD 172-16) [16-44.1 CD FLAC]\14 Etoh.wav<br>
<br>
Peak level 100.0 %<br>
Extraction speed 1.6 X<br>
Track quality 99.9 %<br>
Test CRC 72E3B54D<br>
Copy CRC 72E3B54D<br>
Accurately ripped (confidence 1) [66F83515] (AR v2)<br>
Copy OK<br>
<br>
Track 15<br>
<br>
Filename E:\Music\spidddd colon3\2000 - Since I Left You (2001 Spanish CD - EVERCD 172-16) [16-44.1 CD FLAC]\15 Summer Crane.wav<br>
<br>
Peak level 100.0 %<br>
Extraction speed 2.2 X<br>
Track quality 100.0 %<br>
Test CRC BECEEAE6<br>
Copy CRC BECEEAE6<br>
Accurately ripped (confidence 1) [0D3F4106] (AR v2)<br>
Copy OK<br>
<br>
Track 16<br>
<br>
Filename E:\Music\spidddd colon3\2000 - Since I Left You (2001 Spanish CD - EVERCD 172-16) [16-44.1 CD FLAC]\16 Little Journey.wav<br>
<br>
Peak level 100.0 %<br>
Extraction speed 1.9 X<br>
Track quality 100.0 %<br>
Test CRC DC975181<br>
Copy CRC DC975181<br>
Accurately ripped (confidence 1) [476FECDE] (AR v2)<br>
Copy OK<br>
<br>
Track 17<br>
<br>
Filename E:\Music\spidddd colon3\2000 - Since I Left You (2001 Spanish CD - EVERCD 172-16) [16-44.1 CD FLAC]\17 Live At Dominoes.wav<br>
<br>
Peak level 100.0 %<br>
Extraction speed 2.4 X<br>
Track quality 100.0 %<br>
Test CRC 0A253201<br>
Copy CRC 0A253201<br>
Accurately ripped (confidence 1) [114B427A] (AR v2)<br>
Copy OK<br>
<br>
Track 18<br>
<br>
Filename E:\Music\spidddd colon3\2000 - Since I Left You (2001 Spanish CD - EVERCD 172-16) [16-44.1 CD FLAC]\18 Extra Kings.wav<br>
<br>
Peak level 100.0 %<br>
Extraction speed 2.3 X<br>
Track quality 100.0 %<br>
Test CRC E7FAB7EF<br>
Copy CRC E7FAB7EF<br>
Accurately ripped (confidence 1) [87DD4A68] (AR v2)<br>
Copy OK<br>
<br>
<br>
All tracks accurately ripped<br>
<br>
No errors occurred<br>
<br>
End of status report<br>
<br>
---- CUETools DB Plugin V2.1.6<br>
<br>
[CTDB TOCID: 58B7cyvGW.vie0ojgN9PUtAE2.o-] found<br>
Submit result: 58B7cyvGW.vie0ojgN9PUtAE2.o- has been confirmed<br>
Track | CTDB Status<br>
1 | (5/5) Accurately ripped<br>
2 | (5/5) Accurately ripped<br>
3 | (5/5) Accurately ripped<br>
4 | (5/5) Accurately ripped<br>
5 | (5/5) Accurately ripped<br>
6 | (5/5) Accurately ripped<br>
7 | (5/5) Accurately ripped<br>
8 | (5/5) Accurately ripped<br>
9 | (5/5) Accurately ripped<br>
10 | (5/5) Accurately ripped<br>
11 | (5/5) Accurately ripped<br>
12 | (5/5) Accurately ripped<br>
13 | (5/5) Accurately ripped<br>
14 | (5/5) Accurately ripped<br>
15 | (5/5) Accurately ripped<br>
16 | (5/5) Accurately ripped<br>
17 | (5/5) Accurately ripped<br>
18 | (5/5) Accurately ripped<br>
<br>
<br>
==== Log checksum 53F65AF3ECDE0C3C882413443BB0A9C4BBF5B9D72B33D1A78A6B69D2E26B82F3 ====</div>
</div><br>
</span>
<div class="bbCodeBlock bbCodeVfcHH HiddenContent">
<div class="attribution type">Hidden Content:</div>
<blockquote>You must reply before you can see the hidden data contained here.</blockquote>
</div></span>​</div>
<div class="messageTextEndMarker">&nbsp;</div>
</blockquote>
</article>]]></description>
                <author><![CDATA[spidddd]]></author>
                </item>

                
                <item>
                <title><![CDATA[【Requests】[REQ VID] - Rihanna - AOL Sessions 2010 HQ]]></title>
                <link><![CDATA[https://sharemania.us/threads/rihanna-aol-sessions-2010-hq.246246/]]></link>
                <description><![CDATA[<article>
<blockquote class="messageText SelectQuoteContainer ugc baseHtml">
Hi! Does anyone have a working link to the full set in HQ? Thanks!!
<div class="messageTextEndMarker">&nbsp;</div>
</blockquote>
</article>]]></description>
                <author><![CDATA[josedavidhcu]]></author>
                </item>

                </channel></rss>